<?xml version="1.0" encoding="UTF-8"?><svg id="a" xmlns="http://www.w3.org/2000/svg" width="1in" height="1in" xmlns:xlink="http://www.w3.org/1999/xlink" viewBox="0 0 71.86 71.86"><defs><linearGradient id="b" x1="0" y1="35.93" x2="71.86" y2="35.93" gradientTransform="matrix(1, 0, 0, 1, 0, 0)" gradientUnits="userSpaceOnUse"><stop offset="0" stop-color="#2a3472"/><stop offset="1" stop-color="#48bfeb"/></linearGradient></defs><circle cx="35.93" cy="35.93" r="35.93" fill="url(#b)"/><g><path d="M18.68,26.44c.02-.24,.04-.47,.07-.71,.02-.2,.05-.4,.08-.59,1.13-8.73,3.85-11.4,9.2-8.71-5.05-3.16-10.78-4.7-13.13-1.14-3.68,5.55-3.75,12.4-2.28,19.34,2.88,9.63,6.42,15.57,10.9,18.48-.7-.53-1.33-1.58-1.85-3.46-2.19-8-3.72-15.04-3-23.22Z" fill="#fff" fill-rule="evenodd"/><path d="M24.1,20.8c.31,.1,.61,.21,.9,.32,4.15,1.29,13.71,7.09,9.54,12.27,2.17-2.12,3.3-4.58,2.45-7.47-.85-2.92-4.67-6.79-8.96-9.48-5.36-2.7-8.08-.02-9.2,8.71,.62-3.4,3.4-4.97,5.27-4.35Z" fill="#fff" fill-rule="evenodd"/><path d="M25,21.12c9.12,3.48,8.74,10.28,1.61,14.25-1.95,1.08-3.07,1.9-3.58,2.49-.83,1.91,3.22,.62,5.69-.47,2.25-1.18,4.3-2.51,5.83-4,4.16-5.18-5.4-10.98-9.54-12.27Z" fill="#fff" fill-rule="evenodd"/><path d="M44.14,38.68c-.49-4.49-10.19-3.23-15.43-1.29-2.46,1.09-6.52,2.38-5.69,.47-1.56,1.82,2.64,1.62,6.48,1.01,4.04-.64,6.15-.18,6.91,2.49,.19,.66,.23,1.32,.13,1.97-.08,.54-.24,1.07-.48,1.59-1.66,4.69-5.43,9.12-8.97,13.59,1.13-1.18,2.43-2.77,4.11-4.28,5.13-4.6,13.55-9.88,12.93-15.56Z" fill="#fff" fill-rule="evenodd"/><path d="M36.08,44.93c-1.38,3.06-5.2,5.76-8.13,7.41-1.22,.69-2.73,1.69-4.08,1.01-.12-.06-.23-.13-.34-.22-4.48-2.92-8.02-8.85-10.9-18.48,1.39,6.53,4.15,13.15,6.58,18.87,3.53,8.31,5.24,7.8,7.9,5.01,3.54-4.48,7.31-8.91,8.97-13.59Z" fill="#fff" fill-rule="evenodd"/><path d="M52.35,20.81c7.02,12.22-.98,29.96-4.08,33.04-1.03-2.17-.82-5.77-3.1-6.52-2.49-.82-4.81,2.08-7.21,3.11,6.77-2.54,7.31,1.11,7.12,5.42-.22,4.98,3.49,4.75,5.23,2.45,3.22-4.25,5.37-9.03,6.69-14.52,2.38-9.94,7.02-26.65-3.25-30.5-3.63-1.36-7.14,3.09-10.89,4.09-3.69,.99-6.66,.54-12.71-1.64,4.65,3.85,6.83,5.45,10.93,5.71,4.07,.25,9.31-4.08,11.29-.64Z" fill="#fff" fill-rule="evenodd"/></g></svg>