<?xml version="1.0" encoding="UTF-8"?><svg id="a" xmlns="http://www.w3.org/2000/svg" width="1in" height="1in" viewBox="0 0 71.86 71.86"><circle cx="35.93" cy="35.93" r="35.93" fill="#f7bf16"/><g><path d="M35.24,46.97c-3.46,1.41-6.67,2.6-10.32,3.14-2.8,.41-5.6,.42-8.41-.16-3.4-.71-4.67-2.25-6.13-3.21,6.61,9.39,18.3,7.17,18.3,7.17,2.72-.43,5.34-1.22,7.99-2.29,7.94-3.19,17.46-7.08,25.4-1.4-7.02-8.9-18.88-6.48-26.83-3.25Z" fill="#fdfeff" fill-rule="evenodd"/><path d="M35.77,45.14l.47-1.37,1.04-.6,.87-1.21,1.69-.55,.71-1.64,1.34-.27,1.69-.37,.98-1,.62,.46,1.07,1h2.04l.62-1.18,1.51-1,2.04,.09,.53-1.18,1.33-.28,1.95-.36,.53,4.65-1.67,3.38c-6.26-2.4-13.67-.76-19.35,1.44Z" fill="#fdfeff" fill-rule="evenodd"/><path d="M35.28,14.87c11.29,0,20.49,9.59,20.49,21.33,0,2.56-.43,5.01-1.23,7.28,.91,.31,1.79,.7,2.65,1.19,.95-2.64,1.47-5.49,1.47-8.47,0-13.4-10.5-24.33-23.38-24.33S11.9,22.8,11.9,36.2c0,4.29,1.08,8.33,2.97,11.84,.42,.14,.89,.27,1.4,.37,.83,.17,1.65,.29,2.48,.36-2.49-3.53-3.96-7.88-3.96-12.58,0-11.75,9.21-21.33,20.49-21.33Z" fill="#fdfeff" fill-rule="evenodd"/><path d="M16.85,48.53l-1.26-.79,.57-.97c.77-.59,1.7-1.31,1.79-1.46l1.18,.09,.97-.48,.76,.44,.69,.18,3.22,3.02s-.07,0-.11,.02c-2.61,.38-5.21,.42-7.82-.05Z" fill="#fdfeff" fill-rule="evenodd"/><path d="M50.78,24.34H31.79c-.07,.23-.24,.39-.44,.39-.26,0-.47-.28-.47-.62s.21-.62,.47-.62c.22,0,.4,.2,.45,.48l14.41-4.24c.44,.32,.86,.65,1.27,1l-15.66,3.4v.02l18.07-.96c.3,.37,.6,.76,.88,1.16h0Zm-22.95,4.69v.02l.03,2.01-.23,1.52c-.07,.02-.14,.03-.2,.05-.32,.08-.23,.4-.28,.62,.88-.21,1.87-.38,2.92-.49,1.06-.11,2.05-.15,2.93-.13,0-.18,.09-.55-.22-.56-.83-.02-1.71,.02-2.7,.13h-.02v-3.33c-.78,0-1.53,.06-2.21,.18h0Zm2.22,16.16h0v-1.34c-1.54,.16-2.99,.41-4.29,.71l-.22,1.37s-.04,.01-.06,.02c-.21,.05-.33,.3-.4,.61,0,.05-.21,1.69-.24,2,3.59-.55,6.76-1.72,10.17-3.11,.04-.02,.09-.04,.14-.05-.02-.22-.11-.41-.4-.41-1.44-.03-2.97,.04-4.68,.22h0Zm0-2.59c1.55-.16,2.92-.22,4.23-.2,.49,0,.34,.59,.34,.87-1.37-.04-2.92,.02-4.57,.2-1.65,.17-3.2,.44-4.57,.77,.07-.34-.07-.84,.43-.96,.01,0,.02,0,.04-.01l.23-1.49c1.17-.27,2.48-.49,3.86-.63v1.45h.01Zm0-2.6s0,0-.02,0v-1.55c-1.22,.13-2.39,.32-3.43,.56l-.25,1.59s-.05,.01-.08,.02c-.45,.11-.32,.57-.39,.88,1.25-.3,2.66-.54,4.16-.7,1.5-.16,2.91-.21,4.16-.18,0-.25,.13-.79-.31-.79-1.19-.02-2.44,.03-3.84,.18h0Zm0-2.6c1.27-.14,2.39-.18,3.46-.16,.41,0,.28,.49,.28,.72-1.12-.03-2.4,.02-3.75,.16-1.35,.15-2.62,.36-3.75,.63,.06-.27-.05-.68,.35-.79,.04-.01,.08-.02,.12-.03l.26-1.69c.91-.2,1.93-.37,2.99-.49v1.65h.02Zm0-2.6c1.12-.12,2.11-.16,3.06-.14,.36,0,.26,.43,.26,.63-.99-.03-2.12,.02-3.31,.15-1.19,.12-2.31,.32-3.31,.56,.05-.24-.04-.61,.31-.69,.04-.01,.09-.03,.14-.04l.28-1.79c.78-.17,1.65-.31,2.56-.41v1.74h.02Zm0-7.44c-1.02,0-1.98,.1-2.82,.28v1.18c.84-.18,1.8-.29,2.82-.29s1.98,.1,2.82,.29v-1.18c-.85-.18-1.8-.28-2.82-.28h0Zm0-1.11c-.61,0-1.19,.06-1.71,.17v-3.69c-.07,.01-.14,.02-.2,.03v4.39c.6-.08,1.24-.13,1.91-.13s1.32,.04,1.92,.13v-.7c-.57-.14-1.23-.22-1.92-.22h0Zm.25-5.72c-.07,.04-.16,.06-.25,.06s-.17-.02-.24-.06l-1.74,1.78c.61-.12,1.28-.24,1.99-.24s1.38,.11,1.99,.24l-1.74-1.78h0Zm-.25-1.57h0s.04,.02,.04,.05v.86c.12,.02,.21,.13,.21,.26,0,.14-.11,.26-.25,.26s-.25-.12-.25-.26c0-.13,.09-.24,.21-.26v-.86h0s.02-.05,.04-.05Z" fill="#fdfeff" fill-rule="evenodd"/><path d="M18.25,54.1c6.45,5.62,15.06,3.99,15.06,3.99,2.64-.43,5.17-1.19,7.74-2.22,7.69-3.09,16.9-6.86,24.59-1.36-.87-1.1-1.81-2.02-2.81-2.78-7.89-5.46-17.32-1.61-25.19,1.55-2.65,1.07-5.26,1.86-7.99,2.29,0,0-5.71,1.08-11.4-1.47Z" fill="#fdfeff" fill-rule="evenodd"/></g></svg>